<svg xmlns="http://www.w3.org/2000/svg" fill="none" viewBox="0 0 6092 1245"><path fill="#000" fill-rule="evenodd" d="M622.6 1245A622.5 622.5 0 1 1 1123 252.2c4.3 5.2 8.6 10.6 12.8 16.2 49.1 65 85.8 152 101 251.9a627.5 627.5 0 0 1-.9 209.1c-15.6 97.8-51.8 182.8-100 246.8l-10 12.7A621.8 621.8 0 0 1 622.6 1245Zm0-107A515.4 515.4 0 1 1 696 112.2c-137 99.2-228.3 290.7-228.3 510.7 0 219.5 91 410.6 227.6 510-23.8 3.3-48 5-72.7 5Zm209.7-46.5V154.2c-53.4 18.7-104.7 56.7-148.6 114.8-65.5 86.3-109 211-109 353.9 0 142.7 43.5 267.5 109 353.9 44 58 95.2 96 148.6 114.7Z" clip-rule="evenodd"></path><path fill="#000" d="M1350.8 622.3c0-291.8-159.9-533.4-374-575.9H1441v1152.4H973.3c215.9-40.5 377.5-283.2 377.5-576.5Zm357 .3c-2.5-175 131.8-312.7 307.7-310.2 142.7 0 257.4 79 283 200.6l-88.4 21.2c-23.8-89.2-96-139.4-194.6-139.4-125 0-215 92.7-215 227.8 0 135 90 227.7 215 227.7 99.4 0 172.5-54.4 195.4-155.5l88.4 21.3c-25.5 132.5-137.7 216.6-283.8 216.6-176 2.6-310.2-135-307.7-310.1Zm643.8 72.2c0-135.1 105.4-238 247.3-238 141-2.5 250.7 104.6 248.1 238 2.6 133.4-107 240.5-248.1 238-142 0-247.3-102.9-247.3-238Zm407.9 0c0-96-66.3-160.6-160.6-160.6-93.5 0-159.8 64.6-159.8 160.6s66.3 160.6 159.8 160.6c94.3 0 160.6-64.6 160.6-160.6Zm165 225.2V299.7h87.4V920h-87.5Zm164.4-225.2c0-135.1 105.4-238 247.3-238 141.1-2.5 250.7 104.6 248.2 238 2.5 133.4-107.1 240.5-248.2 238-141.9 0-247.3-102.9-247.3-238Zm408 0c0-96-66.3-160.6-160.7-160.6-93.4 0-159.7 64.6-159.7 160.6s66.3 160.6 159.7 160.6c94.4 0 160.6-64.6 160.6-160.6Zm131 73 81.6-17.8c16.2 73.1 70.6 109.7 161.5 109.7 79 0 127.5-23 127.5-61.2 0-38.3-34.9-57-136-71.4-160.6-22-216.7-60.3-216.7-136 0-80.7 78.2-134.2 196.3-134.2 108.8 0 206.5 62 223.5 143.6l-80.7 19.5c-17-55.2-71.4-90-142.8-90-67.1 0-112.2 24.6-112.2 59.4 0 34 30.6 48.5 139.4 65.5 156.3 23.8 214.1 62.9 214.1 143.6 0 80.7-85 134.2-212.4 134.2-130.9 0-227.7-65.4-243-164.8Zm491.1 0 81.6-17.8c16.2 73.1 70.5 109.7 161.5 109.7 79 0 127.4-23 127.4-61.2 0-38.3-34.8-57-136-71.4-160.5-22-216.6-60.3-216.6-136 0-80.7 78.2-134.2 196.3-134.2 108.8 0 206.5 62 223.5 143.6l-80.8 19.5c-17-55.2-71.3-90-142.7-90-67.2 0-112.2 24.6-112.2 59.4 0 34 30.6 48.5 139.4 65.5 156.3 23.8 214.1 62.9 214.1 143.6 0 80.7-85 134.2-212.4 134.2-130.9 0-227.8-65.4-243-164.8Zm538.5 343.4 113.8-226L4564 469.6h99.4L4819 793.4h1.7l153.8-323.8h99.5l-318 641.6h-98.5Zm424.8-312.7c0-80.7 55.3-121.5 198-142.8 91.8-14.4 122.4-30.6 122.4-61.2 0-38.2-40.8-62.8-102.8-62.8-71.4 0-121.5 37.3-134.3 98.5l-83.3-17.8c8.5-46.8 32.3-85 71.4-113 40-28 88.4-42.5 145.3-42.5 119.9 0 196.3 60.3 196.3 156.3V920H5413v-54.4h-1.7c-29.7 41.7-91.8 67.1-162.3 67.1-102.8 0-166.6-51.8-166.6-134.2Zm327.2-39.1V677h-1.7c-11 20.4-40.8 32.3-112.2 45-91.8 16.1-127.4 36.5-127.4 74 0 41.6 29.7 60.3 96.8 60.3 76.5 0 144.5-45 144.5-97ZM5585.4 920V469.6h85v50.2h1.7c34.8-40 95.1-63 157.2-63 128.3 0 215 80 215 196.4V920h-87.6V667.6c0-82.4-52.6-133.4-135-133.4-44.3 0-80 12.8-108 38.2-27.2 24.7-40.8 57-40.8 97V920h-87.5Z"></path></svg>